<?xml version="1.0" encoding="utf-8"?>
<!-- Generator: Adobe Illustrator 19.2.1, SVG Export Plug-In . SVG Version: 6.00 Build 0)  -->
<svg version="1.1" id="Layer_1" xmlns="http://www.w3.org/2000/svg" xmlns:xlink="http://www.w3.org/1999/xlink" x="0px" y="0px"
	 viewBox="0 0 78.3 75.8" style="enable-background:new 0 0 78.3 75.8;" xml:space="preserve">
<style type="text/css">
	.st0{fill:#FFFFFF;}
	.st1{fill:#FA7D00;}
</style>
<image style="display:none;overflow:visible;" width="128" height="128" xlink:href="../basics-22-128.png"  transform="matrix(1 0 0 1 -23.5 -27.25)">
</image>
<g>
	<line class="st0" x1="3.3" y1="2" x2="77" y2="74.8"/>
	<path class="st1" d="M3.3,2c0,0,0.3,0.2,1,0.7c0.6,0.5,1.6,1.1,2.7,2c2.3,1.7,5.5,4.2,9.3,7.3c3.8,3.1,8.1,6.8,12.6,10.9
		c2.3,2,4.6,4.2,6.9,6.4c2.3,2.2,4.6,4.4,7,6.7c2.3,2.3,4.6,4.6,6.8,6.9c2.2,2.3,4.4,4.6,6.5,6.8c4.1,4.4,7.9,8.7,11.1,12.4
		c3.2,3.7,5.7,6.9,7.4,9.2c0.9,1.1,1.5,2,2,2.7c0.4,0.6,0.7,1,0.7,1s-0.3-0.2-1-0.7c-0.6-0.5-1.6-1.1-2.7-2
		c-2.3-1.7-5.5-4.2-9.3-7.3C60.3,61.7,56,58,51.5,53.9c-2.2-2-4.6-4.2-6.9-6.4c-2.3-2.2-4.6-4.5-7-6.7c-2.3-2.3-4.6-4.6-6.8-6.9
		c-2.2-2.3-4.4-4.6-6.5-6.8c-4.1-4.4-7.9-8.7-11.1-12.4c-3.2-3.7-5.7-6.9-7.4-9.2C5,4.5,4.4,3.6,3.9,3C3.5,2.3,3.3,2,3.3,2z"/>
</g>
<g>
	<line class="st0" x1="76" y1="2" x2="3.3" y2="74.8"/>
	<path class="st1" d="M76,2c0,0-0.2,0.3-0.7,1c-0.5,0.6-1.1,1.5-2,2.7c-1.7,2.3-4.2,5.5-7.3,9.2c-3.1,3.7-6.8,8-10.9,12.4
		c-2,2.2-4.2,4.5-6.4,6.8c-2.2,2.3-4.4,4.6-6.7,6.9c-2.3,2.3-4.6,4.5-6.9,6.7c-2.3,2.2-4.6,4.3-6.8,6.4C24,58,19.8,61.7,16.1,64.8
		c-3.7,3.1-6.9,5.6-9.2,7.3c-1.1,0.9-2,1.5-2.7,2c-0.6,0.4-1,0.7-1,0.7s0.2-0.3,0.7-1c0.5-0.6,1.1-1.5,2-2.7
		c1.7-2.3,4.2-5.5,7.3-9.2c3.1-3.7,6.8-8,10.9-12.4c2-2.2,4.2-4.5,6.4-6.8c2.2-2.3,4.5-4.6,6.7-6.9c2.3-2.3,4.6-4.5,6.9-6.7
		c2.3-2.2,4.6-4.3,6.8-6.4c4.4-4.1,8.7-7.8,12.4-10.9c3.7-3.1,6.9-5.6,9.2-7.3c1.1-0.9,2-1.5,2.7-2C75.7,2.2,76,2,76,2z"/>
</g>
</svg>
