<?xml version="1.0" encoding="utf-8"?>
<!-- Generator: Adobe Illustrator 20.1.0, SVG Export Plug-In . SVG Version: 6.00 Build 0)  -->
<svg version="1.1" id="Layer_1" xmlns="http://www.w3.org/2000/svg" xmlns:xlink="http://www.w3.org/1999/xlink" x="0px" y="0px"
	 viewBox="0 0 298.7 537.3" style="enable-background:new 0 0 298.7 537.3;" xml:space="preserve">
<style type="text/css">
	.st0{fill:#FFFFFF;stroke:#83B2DF;stroke-width:10;stroke-miterlimit:10;}
	.st1{fill:#EDEC86;stroke:#83B2DF;stroke-width:10;stroke-miterlimit:10;}
</style>
<path class="st0" d="M144.3,12c-14.4,1.5-43.1,6.6-72,27c-9.4,6.6-35.1,25.3-50,60c-2.1,4.9-9.9,23.8-11,58
	c-1.5,45.9,10.1,81.9,16,99c34.8,100.5,112.9,242.1,120,255c-1.3-33.4-1.8-61.9-2-84l2-78c0.2-19.3,0.2-33.8,10-47
	c7.5-10.1,16.4-13.7,29-20c0,0,35-10.8,60-37c30.8-32.3,49-83.6,35-133C265.1,54.9,209.5,13.4,144.3,12z"/>
<g>
	<path class="st1" d="M107.2,101.6c22.9-20.9,61.1-22.3,83.9,1.7c23,24.3,19.2,63-3.5,84.3c-25.8,24.2-70.1,20.3-90.1-8.1
		C80.7,155.8,85.6,121.4,107.2,101.6z"/>
</g>
</svg>
